<svg xmlns="http://www.w3.org/2000/svg" version="1.1" xmlns:xlink="http://www.w3.org/1999/xlink" xmlns:svgjs="http://svgjs.dev/svgjs" width="1440" height="1200" preserveAspectRatio="none" viewBox="0 0 1440 1200"><g mask="url(&quot;#SvgjsMask13929&quot;)" fill="none"><rect width="1440" height="1200" x="0" y="0" fill="#0e2a47"></rect><use xlink:href="#SvgjsG13955" transform="translate(0, 0)" fill="#0f457b"></use><use xlink:href="#SvgjsG13955" transform="translate(0, 384.00000000000006)" fill="#0f457b"></use><use xlink:href="#SvgjsG13955" transform="translate(0, 768.0000000000001)" fill="#0f457b"></use><use xlink:href="#SvgjsG13955" transform="translate(0, 1152.0000000000002)" fill="#0f457b"></use><use xlink:href="#SvgjsG13955" transform="translate(384.00000000000006, 0)" fill="#0f457b"></use><use xlink:href="#SvgjsG13955" transform="translate(384.00000000000006, 384.00000000000006)" fill="#0f457b"></use><use xlink:href="#SvgjsG13955" transform="translate(384.00000000000006, 768.0000000000001)" fill="#0f457b"></use><use xlink:href="#SvgjsG13955" transform="translate(384.00000000000006, 1152.0000000000002)" fill="#0f457b"></use><use xlink:href="#SvgjsG13955" transform="translate(768.0000000000001, 0)" fill="#0f457b"></use><use xlink:href="#SvgjsG13955" transform="translate(768.0000000000001, 384.00000000000006)" fill="#0f457b"></use><use xlink:href="#SvgjsG13955" transform="translate(768.0000000000001, 768.0000000000001)" fill="#0f457b"></use><use xlink:href="#SvgjsG13955" transform="translate(768.0000000000001, 1152.0000000000002)" fill="#0f457b"></use><use xlink:href="#SvgjsG13955" transform="translate(1152.0000000000002, 0)" fill="#0f457b"></use><use xlink:href="#SvgjsG13955" transform="translate(1152.0000000000002, 384.00000000000006)" fill="#0f457b"></use><use xlink:href="#SvgjsG13955" transform="translate(1152.0000000000002, 768.0000000000001)" fill="#0f457b"></use><use xlink:href="#SvgjsG13955" transform="translate(1152.0000000000002, 1152.0000000000002)" fill="#0f457b"></use></g><defs><mask id="SvgjsMask13929"><rect width="1440" height="1200" fill="#ffffff"></rect></mask><g id="SvgjsG13940"><path d="M3.474 10.969C3.474 7.665 8.077 0.361 8.077 0.361s4.602 7.305 4.602 10.608c0 2.247-1.506 4.771-4.602 4.771-3.095 0-4.603-2.524-4.603-4.771z" fill-rule="evenodd"></path></g><g id="SvgjsG13939"><path d="M7.713 15.485C3.459 15.485 0 12.025 0 7.768 0 3.513 3.459 0.051 7.713 0.051S15.432 3.513 15.432 7.768c0 4.257-3.465 7.716-7.719 7.717z m0-1.91c3.201 0 5.81-2.604 5.81-5.809 0-3.199-2.61-5.807-5.81-5.807-3.202 0-5.804 2.609-5.804 5.807-0.001 3.206 2.602 5.809 5.804 5.809z"></path><path d="M7.753 8.787a0.574 0.574 0 0 1-0.554-0.042 0.578 0.578 0 0 1-0.259-0.399L6.931 3.862a0.58 0.58 0 0 1 1.162 0v3.478l2.975-1.4a0.578 0.578 0 0 1 0.773 0.275c0.138 0.292 0.011 0.637-0.276 0.774l-3.81 1.798z"></path></g><g id="SvgjsG13945"><path d="M11.986 8.245a46.749 46.749 0 0 1-0.521-0.411c-0.146-0.116-0.293-0.233-0.44-0.348-0.88-0.688-1.797-1.316-2.816-1.407A2.815 2.815 0 0 0 7.954 6.067c-0.086 0-0.171 0.011-0.255 0.018-1.022 0.093-1.942 0.717-2.826 1.408l0.093 0.073c0.108 0.085 0.213 0.168 0.32 0.252C6.165 7.137 7.021 6.576 7.954 6.576c0.93 0 1.784 0.558 2.66 1.236a35.098 35.098 0 0 1 0.535 0.421c0.142 0.113 0.283 0.226 0.426 0.338C12.532 9.32 13.531 10 14.658 10c0.437 0 0.854-0.104 1.257-0.273v-0.557c-0.409 0.197-0.825 0.32-1.257 0.32-0.934 0-1.792-0.563-2.672-1.245z"></path><path d="M11.574 7.496c0.029 0.023 0.059 0.046 0.088 0.07 0.109 0.087 0.216 0.17 0.325 0.256 0.318-0.246 0.635-0.476 0.952-0.67v1.37c0.17 0.111 0.34 0.214 0.51 0.301V6.878c0.315-0.147 0.634-0.248 0.96-0.283v2.537c0.078 0.01 0.157 0.018 0.237 0.018 0.091 0 0.183-0.009 0.273-0.021V6.592c0.34 0.037 0.67 0.144 0.996 0.3V6.336C15.514 6.17 15.099 6.067 14.664 6.067c-1.128 0-2.13 0.68-3.09 1.429z m-7.248 1.08c-0.034-0.027-0.068-0.053-0.102-0.08-0.104-0.083-0.207-0.162-0.31-0.245-0.877 0.678-1.733 1.238-2.665 1.238C0.82 9.49 0.407 9.36 0 9.152v0.562C0.401 9.891 0.815 10 1.249 10c1.124 0 2.122-0.677 3.077-1.423z"></path><path d="M0.989 9.133c0.084 0.011 0.17 0.019 0.254 0.02 0.086 0 0.171-0.008 0.256-0.02V6.592c0.329 0.035 0.65 0.136 0.967 0.285-0.002 0.012-0.007 0.023-0.007 0.036v1.903a5.818 5.818 0 0 0 0.51-0.303V7.152c0.487 0.3 0.971 0.684 1.467 1.08C5.525 9.101 6.652 10 7.948 10c1.123 0 2.121-0.675 3.078-1.42l-0.106-0.084c-0.103-0.082-0.205-0.161-0.306-0.242-0.313 0.242-0.622 0.466-0.934 0.658V7.564A5.816 5.816 0 0 0 9.17 7.261v1.893c0 0.01 0.004 0.019 0.005 0.029-0.316 0.149-0.637 0.252-0.965 0.288V6.937a1.97 1.97 0 0 0-0.267-0.02c-0.082 0-0.163 0.008-0.243 0.017v2.541c-0.33-0.035-0.652-0.136-0.969-0.283 0.002-0.013 0.006-0.024 0.006-0.039V7.248a5.629 5.629 0 0 0-0.51 0.302v1.368c-0.49-0.299-0.976-0.686-1.474-1.083C3.666 6.966 2.539 6.067 1.243 6.067c-0.432 0-0.844 0.096-1.243 0.251v0.55c0.324-0.144 0.652-0.244 0.989-0.278V9.133z"></path></g><g id="SvgjsG13950"><path d="M2.524 8.637H0.014V7.308h2.51v1.329zM3.656 4.576L1.884 2.804l0.935-0.935 1.772 1.772-0.935 0.935z m0 6.817l0.935 0.935-1.772 1.773-0.934-0.936 1.771-1.772z m4.997-8.884h-1.33V-0.002h1.33v2.511z m-1.33 10.952h1.33v2.51h-1.33v-2.509zM12.344 4.576l-0.96-0.935 1.796-1.772 0.935 0.935-1.772 1.772z m0 6.792l1.771 1.797-0.935 0.936-1.771-1.774 0.936-0.96z m3.643-4.06v1.329h-2.51V7.308h2.509z"></path><path d="M3.702 7.984a4.184 4.184 0 1 0 8.368 0 4.184 4.184 0 1 0-8.368 0"></path></g><g id="SvgjsG13942"><path d="M15.233 9.431c0.295 0 0.569-0.239 0.61-0.532 0 0 0.056-0.411 0.056-0.899s-0.056-0.899-0.056-0.899c-0.041-0.292-0.315-0.531-0.61-0.53h-1.524c-0.295 0-0.602-0.188-0.681-0.418s-0.188-0.967 0.021-1.176l1.078-1.077c0.209-0.209 0.225-0.565 0.036-0.792l-1.268-1.268c-0.227-0.189-0.583-0.173-0.792 0.036l-1.078 1.077c-0.208 0.209-0.556 0.293-0.772 0.187s-0.822-0.552-0.821-0.847V0.767c0-0.295-0.239-0.569-0.531-0.61 0 0-0.411-0.057-0.9-0.056s-0.899 0.057-0.899 0.056c-0.293 0.04-0.532 0.315-0.532 0.61v1.524c0 0.295-0.188 0.601-0.418 0.681s-0.967 0.188-1.176-0.021l-1.078-1.078C3.689 1.665 3.333 1.649 3.107 1.837l-1.268 1.268c-0.189 0.227-0.173 0.583 0.036 0.792l1.077 1.078c0.209 0.209 0.293 0.556 0.187 0.772s-0.552 0.822-0.847 0.822H0.767c-0.295 0-0.569 0.239-0.61 0.531 0 0-0.057 0.411-0.056 0.899s0.057 0.899 0.056 0.9c0.04 0.293 0.315 0.532 0.61 0.532h1.525c0.295 0 0.601 0.188 0.681 0.417 0.079 0.23 0.188 0.967-0.02 1.176l-1.078 1.077C1.667 12.311 1.651 12.667 1.84 12.893l1.267 1.268c0.227 0.189 0.583 0.173 0.792-0.036l1.077-1.077c0.209-0.208 0.556-0.292 0.772-0.187s0.821 0.553 0.822 0.848v1.524c0 0.295 0.239 0.569 0.532 0.61 0 0 0.411 0.057 0.899 0.057s0.899-0.056 0.899-0.057c0.293-0.04 0.531-0.315 0.532-0.609v-1.524c0-0.295 0.188-0.602 0.418-0.681 0.23-0.079 0.967-0.188 1.176 0.021l1.077 1.077c0.209 0.209 0.565 0.225 0.792 0.036l1.268-1.267c0.189-0.227 0.173-0.583-0.036-0.792l-1.078-1.077c-0.209-0.209-0.293-0.557-0.186-0.773 0.106-0.216 0.552-0.822 0.847-0.822h1.525zM8 10.892c-1.597 0-2.891-1.294-2.891-2.892 0-1.596 1.295-2.891 2.891-2.891S10.892 6.404 10.892 8 9.597 10.892 8 10.892z"></path></g><g id="SvgjsG13938"><path d="M7.45 12.652S6.4 11.121 3.725 11.121C1.274 11.121 0 11.833 0 11.833V1.937s1.274-0.712 3.725-0.729C6.4 1.19 7.45 2.756 7.45 2.756V12.652z m1.087 0s1.05-1.531 3.725-1.531c2.451 0 3.725 0.712 3.725 0.713V1.937s-1.274-0.712-3.725-0.729c-2.675-0.017-3.725 1.548-3.725 1.548v9.896z"></path><path d="M8.012 15.733S6.4 13.411 3.725 13.411c-2.451 0-3.725 0.712-3.725 0.712v-1.186s1.274-0.712 3.725-0.729c2.675-0.018 4.287 2.34 4.287 2.34V15.733z m0 0s1.612-2.323 4.287-2.323c2.451 0 3.725 0.712 3.725 0.712v-1.185s-1.274-0.712-3.725-0.729c-2.675-0.019-4.287 2.339-4.287 2.339v1.185z"></path></g><g id="SvgjsG13954"><path d="M11.974 14.95h-0.243c-0.142-0.162-0.195-0.364-0.152-0.614 0.071-0.413 0.364-0.754 0.504-0.803l-0.002-0.005a0.525 0.525 0 0 0 0.346-0.491l0.01-10.776c0-0.289-0.234-0.525-0.517-0.527 0 0-2.157-0.002-2.749-0.006l0.003-1.204c0-0.213-0.123-0.403-0.318-0.485a0.517 0.517 0 0 0-0.564 0.11L4.684 3.773C4.051 4.41 3.55 5.613 3.549 6.518L3.52 14.057c-0.002 1.054 0.844 1.918 1.892 1.923l6.56 0.02c0.285 0 0.518-0.235 0.518-0.521v-0.002c0-0.291-0.229-0.525-0.516-0.526M11.398 2.784c0 0.899-0.008 8.829-0.01 9.73h-5.912l3.702-3.137-0.007-6.597c0.336 0.002 1.916 0.004 2.227 0.004M4.557 14.06s0.002-0.434 0.002-0.498H10.75c-0.089 0.19-0.16 0.391-0.194 0.594-0.049 0.28-0.024 0.542 0.038 0.79l-5.179-0.016c-0.474 0-0.858-0.389-0.858-0.87"></path></g><g id="SvgjsG13952"><path d="M13.031 12.687V1.875H9.957L9.97 0.071C9.957 0.078 4.189 2.651 4.189 2.651 3.256 3.097 2.919 3.747 2.919 4.632V13.347c0 1.389 1.116 2.528 2.401 2.528h7.737V14.275c-0.948-0.116-0.948-1.469-0.026-1.588z m-7.749 1.422c-0.848-0.005-0.844-1.194 0-1.194h5.399c-0.375 0.278-0.351 0.936 0.051 1.195H5.282z m6.021-2.884H6.577l3.38-1.524V3.628h1.347v7.597h-0.001z" fill-rule="evenodd"></path></g><g id="SvgjsG13936"><path d="M15.065 12.151H0.02c0 1.333 1.015 1.95 1.83 1.95h11.386c0.975 0 1.83-0.767 1.829-1.951zM12.853 2.166H1.869v7.208c0 0.976 0.843 1.75 1.755 1.75h7.121c1.031 0 1.731-0.863 1.731-1.749V8.773c2.031 0 3.505-1.527 3.505-3.303 0-1.815-1.445-3.303-3.126-3.303z m1.832 3.305c0 1.036-0.763 2.025-2.21 1.931V3.519l0.378 0 0 0.001c1.391 0 1.837 1.318 1.832 1.952v-0.001z"></path></g><g id="SvgjsG13944"><path d="M1.507 0.867v14.666h12.877V0.867h-12.878z m3.76 12.876H3.087V11.564H5.267v2.179z m0-3.328H3.087V8.236H5.267v2.179z m3.768 3.328H6.856V11.564h2.179v2.179z m0-3.328H6.856V8.236h2.179v2.179z m3.775 3.328H10.631v-5.507h2.179v5.507z m0.08-7.65h-9.78V2.602h9.78V6.093z"></path></g><g id="SvgjsG13949"><path d="M11.221 11.657c-2.056 2.056-5.389 2.055-7.444 0-2.056-2.056-2.056-5.389 0-7.444 0.976-0.977 2.617-2.176 5.214-2.176 4.749 0 6.224-1.252 6.224-1.252 0 5.707-1.938 8.816-3.994 10.872z"></path><path d="M3.223 11.626L2.552 10.224l6.437-4.363z"></path><path d="M8.989 5.861l1.15 1.15-8.203 8.203-1.151-1.15z"></path></g><g id="SvgjsG13943"><path d="M7.493 4.681c1.279 0 2.312-1.051 2.312-2.343C9.805 1.045 8.772 0 7.493 0S5.18 1.045 5.18 2.338c0 1.291 1.034 2.342 2.313 2.343z m2.249 0.569c1.058 0.038 1.503 0.894 1.503 0.895l3.415 4.737a1.331 1.331 0 0 1 0.224 0.745c0 0.737-0.59 1.335-1.319 1.334-0.174 0-0.333-0.039-0.484-0.096l-2.061-0.582v2.079H3.864V12.283l-2.061 0.581a1.308 1.308 0 0 1-0.485 0.097C0.589 12.962 0 12.363 0 11.626c0-0.278 0.082-0.535 0.229-0.745l3.413-4.736s0.448-0.857 1.501-0.895H9.742zM7.443 12.91l2.67-0.897-0.058-0.012c-1.844-0.547-1.127-3.009 0.712-2.459l0.253 0.089v-2.779l-3.577 1.18-3.579-1.18V9.63l0.252-0.089c1.843-0.55 2.561 1.913 0.717 2.459l-0.06 0.013 2.67 0.897zM14.793 16c0.183 0 0.33-0.148 0.33-0.333a0.33 0.33 0 0 0-0.33-0.333H0.352c-0.179 0-0.329 0.147-0.329 0.333 0 0.185 0.15 0.333 0.329 0.333h14.441z"></path></g><g id="SvgjsG13933"><path d="M12.049 4.244l-1.49 11.735H5.527L4.041 4.244h6.146L11.403 0 12.091 0.193l-1.164 4.048 1.122 0.003z" fill-rule="evenodd"></path></g><g id="SvgjsG13932"><path d="M3.044 12.188V8.93c0-2.836 2.475-5.244 5.463-5.245 3.022-0.004 5.465 2.352 5.465 5.245v3.258h1.351V8.93C15.332 5.276 12.27 2.325 8.51 2.325 4.777 2.325 1.689 5.333 1.689 8.93v3.258h1.355z"></path><path d="M5.463 14.702l-1.781 0.006V9.593h1.785c0.921 2.372 0 5.111 0 5.111m6.049-5.109H13.298V14.702l-1.783 0.006c-0.921-2.373 0-5.113 0-5.113"></path></g><g><path d="M15.964 4.774l-1.312 10.327H10.223L8.916 4.774h5.408L15.395 1.04 16 1.21l-1.024 3.562 0.988 0.002zM8.29 10.788s0.166-1.502-2.131-1.502H2.5c-2.293 0-2.131 1.502-2.132 1.502h7.922zM0.368 13.595s-0.162 1.506 2.132 1.506h3.659c2.297 0 2.131-1.506 2.131-1.506H0.369z m7.578-0.727a0.68 0.68 0 0 0 0.68-0.68c0-0.372-0.304-0.676-0.68-0.676H0.68C0.306 11.512 0 11.816 0 12.188a0.682 0.682 0 0 0 0.68 0.68h7.266z"></path></g><g id="SvgjsG13935"><path d="M1.135 8.57h1.423c0.108 0 0.208 0.054 0.268 0.142 0 0 0.271 0.41 0.542 0.816 0.15-1.331 0.673-5.983 0.673-5.983a0.322 0.322 0 0 1 0.3-0.284c0.155-0.01 0.294 0.094 0.331 0.246 0 0 0.682 2.858 1.004 4.208l0.427-1.21a0.322 0.322 0 0 1 0.301-0.214c0.134-0.001 0.256 0.083 0.302 0.21 0 0 0.633 1.72 0.76 2.067h1.236c0.108 0 0.208 0.054 0.267 0.142 0 0 0.271 0.41 0.542 0.816 0.15-1.331 0.673-5.983 0.673-5.983a0.321 0.321 0 0 1 0.631-0.039s0.681 2.857 1.004 4.209c0.212-0.6 0.428-1.208 0.427-1.208a0.32 0.32 0 0 1 0.602-0.004s0.634 1.72 0.76 2.067h1.262l0.067-0.128c0.613-1.055 1.061-3.009 1.061-4.432C16 2.193 14.678 0 12.102 0c-3.679 0-4.152 3.447-4.152 3.447S7.494 0.017 3.818 0.017C1.333 0.017 0 2.13 0 4.009c0 1.622 0.71 3.625 1.074 4.448l0.061 0.113z"></path><path d="M13.385 9.211a0.321 0.321 0 0 1-0.301-0.21S12.8 8.229 12.554 7.56c-0.23 0.654-0.491 1.394-0.492 1.394a0.318 0.318 0 0 1-0.319 0.213 0.318 0.318 0 0 1-0.295-0.245L10.618 5.44l-0.567 5.036a0.321 0.321 0 0 1-0.243 0.275 0.32 0.32 0 0 1-0.342-0.133s-0.778-1.17-0.935-1.406H7.243c-0.134 0-0.254-0.085-0.3-0.21l-0.531-1.442-0.492 1.395A0.318 0.318 0 0 1 5.6 9.166a0.32 0.32 0 0 1-0.296-0.245s-0.458-1.921-0.83-3.48c-0.221 1.964-0.566 5.034-0.566 5.034a0.321 0.321 0 0 1-0.586 0.141s-0.778-1.17-0.935-1.405H1.483c2.301 4.086 6.468 6.779 6.468 6.779S12.194 13.298 14.531 9.211h-1.146z"></path></g><g id="SvgjsG13946"><path d="M8 2.545C2.984 2.545 0.007 8 0.007 8S2.984 13.455 8 13.455 15.993 8 15.993 8 13.016 2.545 8 2.545z m0 8.71c-1.795 0-3.255-1.46-3.255-3.255S6.205 4.745 8 4.745 11.254 6.205 11.254 8s-1.46 3.255-3.254 3.255z"></path><path d="M6.079 8.078a1.921 1.921 0 1 0 3.842 0 1.921 1.921 0 1 0-3.842 0"></path></g><g id="SvgjsG13931"><path d="M11.318 9.025V16h3.529V0H11.318v5.573h-6.589V0H1.2v16h3.529V9.025h6.589z"></path></g><g id="SvgjsG13953"><path d="M8.859 0H2.08v16h3.086V10.745h3.556c2.69 0.003 5.289-2.29 5.285-5.363C14.011 2.654 11.826 0.001 8.859 0z m-0.196 7.805h-3.457V2.97h3.497c1.134-0.004 2.276 1.048 2.276 2.451 0 1.405-1.064 2.38-2.316 2.384z"></path></g><g id="SvgjsG13930"><path d="M3.755 2.315h2.494v11.128h-2.494zM13.507 0.537H16v11.261h-2.493z"></path><path d="M4.451 5.556l-0.696-3.24L16 0v3.167z"></path><path d="M0 13.443a3.124 2.606 0 1 0 6.249 0 3.124 2.606 0 1 0-6.249 0"></path><path d="M9.751 11.798a3.124 2.606 0 1 0 6.249 0 3.124 2.606 0 1 0-6.249 0"></path></g><g id="SvgjsG13941"><path d="M5.534 5.272L8.008 0l2.474 5.272 5.534 0.845-4.004 4.103 0.945 5.795L8.008 13.279 3.06 16.015l0.945-5.795L0.001 6.117z"></path></g><g><path d="M13.165 5.485L5.295 15.96l1.814-7.368-4.222 0.071L9.733 0 7.677 5.489l5.488-0.004z" fill-rule="evenodd"></path></g><g id="SvgjsG13937"><path d="M12.393 6.969a3.464 3.464 0 1 0 0 6.927 3.464 3.464 0 0 0 0-6.927z m0 5.284a1.82 1.82 0 1 1 0-3.639 1.82 1.82 0 0 1 0 3.639zM2.352 10.017a1.937 1.937 0 1 0 0 3.874 1.937 1.937 0 0 0 0-3.874z m-0.001 2.919a0.981 0.981 0 1 1 0-1.961 0.981 0.981 0 0 1 0 1.961z" fill-rule="evenodd"></path><path d="M12.393 5.997c-0.28 0-0.555 0.026-0.821 0.076-0.091-1.511-0.535-1.848-0.667-2.311-0.045-0.163 0.093-0.482 0.093-0.783 0-0.059-0.017-0.787-0.64-0.787-0.598 0-0.745 0.452-0.745 0.452V3.625c0 0.084 0.073 0.153 0.165 0.153h0.216l-0.666 1.34-1.026 0.808-0.292-0.34-3.722 0.862V2.192H3.873v4.353l-0.034 0.007-3.411 0.175V9.048l0.459 1.139a2.284 2.284 0 0 1 1.465-0.53 2.295 2.295 0 0 1 1.918 1.037h4.31a3.695 3.695 0 0 1-0.01-0.261c0-2.108 1.715-3.823 3.823-3.823 0.8 0 1.545 0.248 2.159 0.671l0.351-0.505a4.415 4.415 0 0 0-2.51-0.778z" fill-rule="evenodd"></path></g><g id="SvgjsG13947"><path d="M15.367 13.469a2.272 2.272 0 0 1-0.914-0.196 2.226 2.226 0 0 0-0.939-0.209c-0.334 0-0.654 0.077-0.938 0.209a2.254 2.254 0 0 1-0.912 0.196c-0.32 0-0.634-0.074-0.911-0.196a2.25 2.25 0 0 0-0.938-0.209 2.234 2.234 0 0 0-0.939 0.209c-0.279 0.123-0.588 0.196-0.912 0.196-0.324 0-0.637-0.074-0.912-0.196a2.237 2.237 0 0 0-0.939-0.209c-0.336 0-0.656 0.077-0.94 0.209a2.253 2.253 0 0 1-0.912 0.196 2.238 2.238 0 0 1-0.909-0.196c-0.288-0.132-0.609-0.209-0.938-0.209-0.335 0-0.656 0.077-0.939 0.209-0.281 0.123-0.59 0.196-0.914 0.197v-1.367c0.324 0 0.633-0.074 0.914-0.196a2.225 2.225 0 0 1 0.939-0.209c0.33 0 0.65 0.077 0.938 0.209a2.235 2.235 0 0 0 0.909 0.196c0.324 0 0.637-0.074 0.912-0.196a2.24 2.24 0 0 1 0.94-0.209c0.334 0 0.654 0.077 0.939 0.209a2.254 2.254 0 0 0 0.912 0.196c0.324 0 0.633-0.074 0.912-0.196a2.236 2.236 0 0 1 0.938-0.209c0.332 0 0.652 0.077 0.939 0.209 0.277 0.123 0.59 0.196 0.911 0.197a2.256 2.256 0 0 0 0.912-0.196 2.237 2.237 0 0 1 0.938-0.209c0.336 0 0.656 0.077 0.939 0.209a2.269 2.269 0 0 0 0.914 0.196v1.366zM12.038 5.135l-0.29 0.496s-0.053 0.107-0.22 0.107H10.683l-0.482-1.432c0.038-0.007 0.077-0.015 0.104-0.019 0.302-0.055 0.405-0.055 0.629 0.06 0 0 0.961 0.496 1.027 0.533 0.081 0.04 0.132 0.158 0.077 0.255m-2.308-0.737l0.454 1.34H6.826c-0.074 0-0.15-0.043-0.151-0.159v-0.181c0-0.098 0.041-0.158 0.13-0.201 0.102-0.047 0.711-0.29 1.078-0.387a39.622 39.622 0 0 1 1.847-0.412M6.752 9.632l0.545-1.468h3.773l0.544 1.462-4.862 0.006z m9.101-0.013l-3.803 0.003-0.549-1.47c0.437-0.07 1.263-0.202 1.738-0.337 0.205-0.053 0.415-0.266 0.475-0.388l1.132-1.727v2.162c0 0.243 0.362 0.243 0.362 0V5.631h0.155c0.434 0 0.434-0.65 0-0.65h-0.155V2.822c0-0.243-0.362-0.243-0.362 0v2.158h-0.105c-0.386-0.038-2.201-0.232-2.552-0.412-0.352-0.185-0.722-0.394-1.067-0.571-0.317-0.158-0.501-0.147-0.844-0.089-0.194 0.038-1.336 0.251-2.442 0.531-1.366 0.345-3.053 1.14-3.054 1.14l-1.928 0.008c-0.441-0.128-0.614-0.954-0.806-1.318L1.562 3.29c-0.036-0.081-0.124-0.106-0.21-0.11l-1.228-0.073c-0.185-0.011-0.115 0.143-0.089 0.232l0.842 3.303c0.088 0.37 0.601 0.722 0.962 0.76l4.962 0.762h0.063l-0.545 1.468-3.901 0.003c-0.096 0-0.173 0.053-0.174 0.146v0.249c0 0.104 0.062 0.173 0.174 0.207 0.32 0.096 1.283 0.36 2.433 0.64 0.04-0.015 0.081-0.022 0.121-0.041a2.684 2.684 0 0 1 1.142-0.255c0.394 0 0.78 0.085 1.136 0.251 0.224 0.104 0.471 0.155 0.714 0.155s0.483-0.051 0.707-0.151a2.738 2.738 0 0 1 1.144-0.254c0.387 0 0.784 0.089 1.134 0.25a1.738 1.738 0 0 0 0.715 0.155c0.243 0 0.49-0.051 0.707-0.151 0.36-0.166 0.754-0.254 1.144-0.254 0.37 0 0.741 0.081 1.08 0.228 0.948-0.313 1.283-0.569 1.283-0.57 0.074-0.06 0.123-0.123 0.122-0.218v-0.257c0-0.096-0.053-0.147-0.147-0.146"></path></g><g id="SvgjsG13951"><path d="M12.57 11.336c0.436 0 0.787-0.358 0.788-0.801 0-0.437-0.351-0.796-0.788-0.796-0.438 0-0.789 0.358-0.788 0.796 0 0.443 0.351 0.801 0.788 0.801z m-1.822-0.801c0-1.014 0.814-1.839 1.823-1.839 1.004 0 1.818 0.825 1.818 1.839 0 1.019-0.814 1.843-1.818 1.843-1.008 0-1.822-0.825-1.823-1.843z"></path><path d="M15.279 8.566l-0.004-1.856c0-0.739-0.65-0.661-0.65-0.661H10.946L9.604 3.76H8.814l1.342 2.289-1.016 1.739-2.318-0.004c-0.801-1.662-2.428-1.558-2.428-1.558H0v3.95h0.628c0.084-1.344 1.361-2.409 2.71-2.409 1.349 0 2.629 1.068 2.71 2.409l3.82 0.004c0.081-1.345 1.361-2.413 2.71-2.413 1.349 0 2.633 1.068 2.71 2.415l0.237 0.003c0.263 0 0.475-0.216 0.476-0.482v-1.138h-0.721v0.001z"></path><path d="M3.331 11.336c0.437 0 0.791-0.358 0.79-0.801 0-0.437-0.354-0.796-0.791-0.796-0.434 0-0.789 0.358-0.788 0.796 0 0.443 0.355 0.801 0.788 0.801z m-1.819-0.801c0-1.014 0.815-1.839 1.819-1.839 1.008 0 1.82 0.825 1.819 1.839 0 1.019-0.813 1.843-1.82 1.843-1.004 0-1.819-0.825-1.819-1.843z"></path></g><g id="SvgjsG13948"><path d="M5.942 5.059s0.24-0.368-0.043-0.512H3.845s-0.33 0.171 0.013 0.728l2.086-0.216zM10.288 6.04s0.101 0.141-0.006 0.224l-2.605 2.016 0.315 0.442L10.576 6.736s0.042-0.083 0.17 0.088l0.022-0.272-0.48-0.512z"></path><path d="M7.811 4.501s-0.112 0.013-0.099-0.08V4.08s0.042-0.088 0.112-0.08h2.421s0.571 0.013 0.214 0.501c0 0-0.293 0.235-0.149 0.589L12.608 9.165l-0.4 0.232-1.941-3.328s0.035-0.054-0.264-0.048h-4.224l1.162 2.107-0.471 0.288L5.12 6.096s-0.048-0.053-0.085 0.016l-1.142 2.528s-0.029 0.069 0.086 0.085l2.298 0.008 0.057 0.472H3.45s-0.342 0-0.208-0.341l1.484-3.408s0.022 0-0.006-0.058l-0.155-0.252 0.64-0.08 0.102 0.2s0.027 0.086 0.128 0.073h4.218s0.16 0.032 0.16-0.16c0-0.192-0.125-0.234 0.025-0.56 0 0 0.056-0.112-0.064-0.112H7.808"></path><path d="M3.437 6.96a2.064 2.064 0 0 0 0 4.128 2.064 2.064 0 0 0 0-4.128zM12.288 6.96a2.064 2.064 0 1 0 2.064 2.064 2.064 2.064 0 0 0-2.064-2.064z"></path><path d="M7.131 8.341a0.688 0.688 0 1 0 0 1.376 0.688 0.688 0 0 0 0-1.376z"></path></g><g id="SvgjsG13934"><path d="M12.676 8.32c-1.028 0-1.863 0.836-1.864 1.867 0 1.031 0.836 1.86 1.867 1.859S14.542 11.218 14.542 10.187c0-1.031-0.836-1.867-1.866-1.867M1.982 10.578c0.185 0.832 0.93 1.484 1.821 1.484 0.9 0 1.653-0.64 1.825-1.486H1.982z" fill-rule="evenodd"></path><path d="M14.32 8.213c-0.332-1.502-1.822-1.333-1.822-1.333l-0.454-1.458c-0.014-0.062 0.076-0.089 0.077-0.089l0.768-0.231-0.107-1.081L11.881 3.947C11.623 3.973 11.563 3.733 11.563 3.733l-0.107-0.373C11.383 3.07 11.129 3.102 11.129 3.102H9.333c-0.256 0.19 0.044 0.343 0.045 0.343h1.102c0.103-0.018 0.164 0.107 0.164 0.107l0.604 3.627c-1.358 0.907-1.582 1.959-1.582 1.959H7.614c-1.28-0.965-0.711-2.35-0.711-2.35h0.498v-1.007H0.88v1.007h0.996c-1.387 1.326-1.28 3.285-1.28 3.285h9.656A2.428 2.428 0 0 1 14.222 8.309s0.142 0.103 0.098-0.097" fill-rule="evenodd"></path></g><g id="SvgjsG13955"><use xlink:href="#SvgjsG13930" transform="translate(0, 0) scale(1.6)" fill="#0f457b"></use><use xlink:href="#SvgjsG13931" transform="translate(0, 38.400000000000006) scale(1.6)" fill="#0f457b"></use><use xlink:href="#SvgjsG13932" transform="translate(0, 76.80000000000001) scale(1.6)" fill="#0f457b"></use><use xlink:href="#SvgjsG13933" transform="translate(0, 115.20000000000002) scale(1.6)" fill="#0f457b"></use><use xlink:href="#SvgjsG13934" transform="translate(0, 153.60000000000002) scale(1.6)" fill="#0f457b"></use><use xlink:href="#SvgjsG13935" transform="translate(0, 192.00000000000003) scale(1.6)" fill="#0f457b"></use><use xlink:href="#SvgjsG13936" transform="translate(0, 230.40000000000003) scale(1.6)" fill="#0f457b"></use><use xlink:href="#SvgjsG13937" transform="translate(0, 268.80000000000007) scale(1.6)" fill="#0f457b"></use><use xlink:href="#SvgjsG13938" transform="translate(0, 307.20000000000005) scale(1.6)" fill="#0f457b"></use><use xlink:href="#SvgjsG13935" transform="translate(0, 345.6) scale(1.6)" fill="#0f457b"></use><use xlink:href="#SvgjsG13936" transform="translate(38.400000000000006, 0) scale(1.6)" fill="#0f457b"></use><use xlink:href="#SvgjsG13939" transform="translate(38.400000000000006, 38.400000000000006) scale(1.6)" fill="#0f457b"></use><use xlink:href="#SvgjsG13940" transform="translate(38.400000000000006, 76.80000000000001) scale(1.6)" fill="#0f457b"></use><use xlink:href="#SvgjsG13932" transform="translate(38.400000000000006, 115.20000000000002) scale(1.6)" fill="#0f457b"></use><use xlink:href="#SvgjsG13941" transform="translate(38.400000000000006, 153.60000000000002) scale(1.6)" fill="#0f457b"></use><use xlink:href="#SvgjsG13942" transform="translate(38.400000000000006, 192.00000000000003) scale(1.6)" fill="#0f457b"></use><use xlink:href="#SvgjsG13943" transform="translate(38.400000000000006, 230.40000000000003) scale(1.6)" fill="#0f457b"></use><use xlink:href="#SvgjsG13944" transform="translate(38.400000000000006, 268.80000000000007) scale(1.6)" fill="#0f457b"></use><use xlink:href="#SvgjsG13934" transform="translate(38.400000000000006, 307.20000000000005) scale(1.6)" fill="#0f457b"></use><use xlink:href="#SvgjsG13940" transform="translate(38.400000000000006, 345.6) scale(1.6)" fill="#0f457b"></use><use xlink:href="#SvgjsG13945" transform="translate(76.80000000000001, 0) scale(1.6)" fill="#0f457b"></use><use xlink:href="#SvgjsG13946" transform="translate(76.80000000000001, 38.400000000000006) scale(1.6)" fill="#0f457b"></use><use xlink:href="#SvgjsG13942" transform="translate(76.80000000000001, 76.80000000000001) scale(1.6)" fill="#0f457b"></use><use xlink:href="#SvgjsG13930" transform="translate(76.80000000000001, 115.20000000000002) scale(1.6)" fill="#0f457b"></use><use xlink:href="#SvgjsG13932" transform="translate(76.80000000000001, 153.60000000000002) scale(1.6)" fill="#0f457b"></use><use xlink:href="#SvgjsG13947" transform="translate(76.80000000000001, 192.00000000000003) scale(1.6)" fill="#0f457b"></use><use xlink:href="#SvgjsG13946" transform="translate(76.80000000000001, 230.40000000000003) scale(1.6)" fill="#0f457b"></use><use xlink:href="#SvgjsG13948" transform="translate(76.80000000000001, 268.80000000000007) scale(1.6)" fill="#0f457b"></use><use xlink:href="#SvgjsG13948" transform="translate(76.80000000000001, 307.20000000000005) scale(1.6)" fill="#0f457b"></use><use xlink:href="#SvgjsG13939" transform="translate(76.80000000000001, 345.6) scale(1.6)" fill="#0f457b"></use><use xlink:href="#SvgjsG13949" transform="translate(115.20000000000002, 0) scale(1.6)" fill="#0f457b"></use><use xlink:href="#SvgjsG13950" transform="translate(115.20000000000002, 38.400000000000006) scale(1.6)" fill="#0f457b"></use><use xlink:href="#SvgjsG13940" transform="translate(115.20000000000002, 76.80000000000001) scale(1.6)" fill="#0f457b"></use><use xlink:href="#SvgjsG13936" transform="translate(115.20000000000002, 115.20000000000002) scale(1.6)" fill="#0f457b"></use><use xlink:href="#SvgjsG13946" transform="translate(115.20000000000002, 153.60000000000002) scale(1.6)" fill="#0f457b"></use><use xlink:href="#SvgjsG13934" transform="translate(115.20000000000002, 192.00000000000003) scale(1.6)" fill="#0f457b"></use><use xlink:href="#SvgjsG13951" transform="translate(115.20000000000002, 230.40000000000003) scale(1.6)" fill="#0f457b"></use><use xlink:href="#SvgjsG13940" transform="translate(115.20000000000002, 268.80000000000007) scale(1.6)" fill="#0f457b"></use><use xlink:href="#SvgjsG13942" transform="translate(115.20000000000002, 307.20000000000005) scale(1.6)" fill="#0f457b"></use><use xlink:href="#SvgjsG13938" transform="translate(115.20000000000002, 345.6) scale(1.6)" fill="#0f457b"></use><use xlink:href="#SvgjsG13939" transform="translate(153.60000000000002, 0) scale(1.6)" fill="#0f457b"></use><use xlink:href="#SvgjsG13933" transform="translate(153.60000000000002, 38.400000000000006) scale(1.6)" fill="#0f457b"></use><use xlink:href="#SvgjsG13944" transform="translate(153.60000000000002, 76.80000000000001) scale(1.6)" fill="#0f457b"></use><use xlink:href="#SvgjsG13938" transform="translate(153.60000000000002, 115.20000000000002) scale(1.6)" fill="#0f457b"></use><use xlink:href="#SvgjsG13936" transform="translate(153.60000000000002, 153.60000000000002) scale(1.6)" fill="#0f457b"></use><use xlink:href="#SvgjsG13943" transform="translate(153.60000000000002, 192.00000000000003) scale(1.6)" fill="#0f457b"></use><use xlink:href="#SvgjsG13951" transform="translate(153.60000000000002, 230.40000000000003) scale(1.6)" fill="#0f457b"></use><use xlink:href="#SvgjsG13937" transform="translate(153.60000000000002, 268.80000000000007) scale(1.6)" fill="#0f457b"></use><use xlink:href="#SvgjsG13944" transform="translate(153.60000000000002, 307.20000000000005) scale(1.6)" fill="#0f457b"></use><use xlink:href="#SvgjsG13944" transform="translate(153.60000000000002, 345.6) scale(1.6)" fill="#0f457b"></use><use xlink:href="#SvgjsG13939" transform="translate(192.00000000000003, 0) scale(1.6)" fill="#0f457b"></use><use xlink:href="#SvgjsG13950" transform="translate(192.00000000000003, 38.400000000000006) scale(1.6)" fill="#0f457b"></use><use xlink:href="#SvgjsG13952" transform="translate(192.00000000000003, 76.80000000000001) scale(1.6)" fill="#0f457b"></use><use xlink:href="#SvgjsG13932" transform="translate(192.00000000000003, 115.20000000000002) scale(1.6)" fill="#0f457b"></use><use xlink:href="#SvgjsG13944" transform="translate(192.00000000000003, 153.60000000000002) scale(1.6)" fill="#0f457b"></use><use xlink:href="#SvgjsG13943" transform="translate(192.00000000000003, 192.00000000000003) scale(1.6)" fill="#0f457b"></use><use xlink:href="#SvgjsG13930" transform="translate(192.00000000000003, 230.40000000000003) scale(1.6)" fill="#0f457b"></use><use xlink:href="#SvgjsG13951" transform="translate(192.00000000000003, 268.80000000000007) scale(1.6)" fill="#0f457b"></use><use xlink:href="#SvgjsG13933" transform="translate(192.00000000000003, 307.20000000000005) scale(1.6)" fill="#0f457b"></use><use xlink:href="#SvgjsG13953" transform="translate(192.00000000000003, 345.6) scale(1.6)" fill="#0f457b"></use><use xlink:href="#SvgjsG13952" transform="translate(230.40000000000003, 0) scale(1.6)" fill="#0f457b"></use><use xlink:href="#SvgjsG13931" transform="translate(230.40000000000003, 38.400000000000006) scale(1.6)" fill="#0f457b"></use><use xlink:href="#SvgjsG13935" transform="translate(230.40000000000003, 76.80000000000001) scale(1.6)" fill="#0f457b"></use><use xlink:href="#SvgjsG13935" transform="translate(230.40000000000003, 115.20000000000002) scale(1.6)" fill="#0f457b"></use><use xlink:href="#SvgjsG13941" transform="translate(230.40000000000003, 153.60000000000002) scale(1.6)" fill="#0f457b"></use><use xlink:href="#SvgjsG13951" transform="translate(230.40000000000003, 192.00000000000003) scale(1.6)" fill="#0f457b"></use><use xlink:href="#SvgjsG13948" transform="translate(230.40000000000003, 230.40000000000003) scale(1.6)" fill="#0f457b"></use><use xlink:href="#SvgjsG13934" transform="translate(230.40000000000003, 268.80000000000007) scale(1.6)" fill="#0f457b"></use><use xlink:href="#SvgjsG13938" transform="translate(230.40000000000003, 307.20000000000005) scale(1.6)" fill="#0f457b"></use><use xlink:href="#SvgjsG13934" transform="translate(230.40000000000003, 345.6) scale(1.6)" fill="#0f457b"></use><use xlink:href="#SvgjsG13939" transform="translate(268.80000000000007, 0) scale(1.6)" fill="#0f457b"></use><use xlink:href="#SvgjsG13946" transform="translate(268.80000000000007, 38.400000000000006) scale(1.6)" fill="#0f457b"></use><use xlink:href="#SvgjsG13932" transform="translate(268.80000000000007, 76.80000000000001) scale(1.6)" fill="#0f457b"></use><use xlink:href="#SvgjsG13940" transform="translate(268.80000000000007, 115.20000000000002) scale(1.6)" fill="#0f457b"></use><use xlink:href="#SvgjsG13930" transform="translate(268.80000000000007, 153.60000000000002) scale(1.6)" fill="#0f457b"></use><use xlink:href="#SvgjsG13938" transform="translate(268.80000000000007, 192.00000000000003) scale(1.6)" fill="#0f457b"></use><use xlink:href="#SvgjsG13931" transform="translate(268.80000000000007, 230.40000000000003) scale(1.6)" fill="#0f457b"></use><use xlink:href="#SvgjsG13945" transform="translate(268.80000000000007, 268.80000000000007) scale(1.6)" fill="#0f457b"></use><use xlink:href="#SvgjsG13948" transform="translate(268.80000000000007, 307.20000000000005) scale(1.6)" fill="#0f457b"></use><use xlink:href="#SvgjsG13954" transform="translate(268.80000000000007, 345.6) scale(1.6)" fill="#0f457b"></use><use xlink:href="#SvgjsG13946" transform="translate(307.20000000000005, 0) scale(1.6)" fill="#0f457b"></use><use xlink:href="#SvgjsG13948" transform="translate(307.20000000000005, 38.400000000000006) scale(1.6)" fill="#0f457b"></use><use xlink:href="#SvgjsG13943" transform="translate(307.20000000000005, 76.80000000000001) scale(1.6)" fill="#0f457b"></use><use xlink:href="#SvgjsG13948" transform="translate(307.20000000000005, 115.20000000000002) scale(1.6)" fill="#0f457b"></use><use xlink:href="#SvgjsG13954" transform="translate(307.20000000000005, 153.60000000000002) scale(1.6)" fill="#0f457b"></use><use xlink:href="#SvgjsG13939" transform="translate(307.20000000000005, 192.00000000000003) scale(1.6)" fill="#0f457b"></use><use xlink:href="#SvgjsG13934" transform="translate(307.20000000000005, 230.40000000000003) scale(1.6)" fill="#0f457b"></use><use xlink:href="#SvgjsG13943" transform="translate(307.20000000000005, 268.80000000000007) scale(1.6)" fill="#0f457b"></use><use xlink:href="#SvgjsG13930" transform="translate(307.20000000000005, 307.20000000000005) scale(1.6)" fill="#0f457b"></use><use xlink:href="#SvgjsG13940" transform="translate(307.20000000000005, 345.6) scale(1.6)" fill="#0f457b"></use><use xlink:href="#SvgjsG13933" transform="translate(345.6, 0) scale(1.6)" fill="#0f457b"></use><use xlink:href="#SvgjsG13931" transform="translate(345.6, 38.400000000000006) scale(1.6)" fill="#0f457b"></use><use xlink:href="#SvgjsG13931" transform="translate(345.6, 76.80000000000001) scale(1.6)" fill="#0f457b"></use><use xlink:href="#SvgjsG13944" transform="translate(345.6, 115.20000000000002) scale(1.6)" fill="#0f457b"></use><use xlink:href="#SvgjsG13953" transform="translate(345.6, 153.60000000000002) scale(1.6)" fill="#0f457b"></use><use xlink:href="#SvgjsG13946" transform="translate(345.6, 192.00000000000003) scale(1.6)" fill="#0f457b"></use><use xlink:href="#SvgjsG13934" transform="translate(345.6, 230.40000000000003) scale(1.6)" fill="#0f457b"></use><use xlink:href="#SvgjsG13953" transform="translate(345.6, 268.80000000000007) scale(1.6)" fill="#0f457b"></use><use xlink:href="#SvgjsG13943" transform="translate(345.6, 307.20000000000005) scale(1.6)" fill="#0f457b"></use><use xlink:href="#SvgjsG13953" transform="translate(345.6, 345.6) scale(1.6)" fill="#0f457b"></use></g></defs></svg>