<svg xmlns="http://www.w3.org/2000/svg" version="1.1" xmlns:xlink="http://www.w3.org/1999/xlink" viewBox="0 0 200 200"><rect width="200" height="200" fill="url('#gradient')"></rect><defs><linearGradient id="gradient" gradientTransform="rotate(45 0.5 0.5)"><stop offset="0%" stop-color="#209c8a"></stop><stop offset="100%" stop-color="#506663"></stop></linearGradient></defs><g><g fill="#8b889e" transform="matrix(2.2599313388916134,0,0,2.2599313388916134,7.576669368690126,116.96066705428717)" stroke="#477d39" stroke-width="0.2"><path d="M10.03-8.30L10.03-5.66L4.50-5.66L4.50 0L1.07 0L1.07-14.22L10.59-14.22L10.59-11.57L4.50-11.57L4.50-8.30L10.03-8.30ZM15.33-10.57L15.33 0L12.03 0L12.03-10.57L15.33-10.57ZM11.84-13.29L11.84-13.29Q11.84-13.99 12.34-14.44Q12.85-14.89 13.66-14.89Q14.47-14.89 14.98-14.44Q15.49-13.99 15.49-13.29Q15.49-12.59 14.98-12.14Q14.47-11.69 13.66-11.69Q12.85-11.69 12.34-12.14Q11.84-12.59 11.84-13.29ZM23.81-10.64L23.75-7.59L22.67-7.67Q21.11-7.67 20.67-6.69L20.67-6.69L20.67 0L17.38 0L17.38-10.57L20.47-10.57L20.58-9.21Q21.41-10.76 22.89-10.76L22.89-10.76Q23.42-10.76 23.81-10.64L23.81-10.64ZM30.47-2.97L30.47-2.97Q30.47-3.39 30.03-3.64Q29.59-3.90 28.36-4.17Q27.13-4.44 26.33-4.89Q25.53-5.33 25.11-5.97Q24.69-6.60 24.69-7.42L24.69-7.42Q24.69-8.88 25.89-9.82Q27.09-10.76 29.03-10.76L29.03-10.76Q31.12-10.76 32.39-9.81Q33.66-8.87 33.66-7.32L33.66-7.32L30.36-7.32Q30.36-8.59 29.02-8.59L29.02-8.59Q28.51-8.59 28.15-8.31Q27.80-8.02 27.80-7.59L27.80-7.59Q27.80-7.15 28.23-6.88Q28.66-6.60 29.60-6.43Q30.55-6.25 31.26-6.01L31.26-6.01Q33.64-5.19 33.64-3.07L33.64-3.07Q33.64-1.62 32.36-0.71Q31.07 0.20 29.03 0.20L29.03 0.20Q27.68 0.20 26.61-0.29Q25.55-0.78 24.95-1.62Q24.36-2.46 24.36-3.39L24.36-3.39L27.43-3.39Q27.45-2.66 27.92-2.32Q28.39-1.98 29.12-1.98L29.12-1.98Q29.79-1.98 30.13-2.26Q30.47-2.53 30.47-2.97ZM35.72-13.19L39.01-13.19L39.01-10.57L40.75-10.57L40.75-8.28L39.01-8.28L39.01-3.45Q39.01-2.85 39.23-2.62Q39.44-2.38 40.08-2.38L40.08-2.38Q40.57-2.38 40.90-2.44L40.90-2.44L40.90-0.09Q40.01 0.20 39.04 0.20L39.04 0.20Q37.34 0.20 36.53-0.61Q35.72-1.41 35.72-3.04L35.72-3.04L35.72-8.28L34.38-8.28L34.38-10.57L35.72-10.57L35.72-13.19ZM45.63-14.22L45.63-2.64L51.59-2.64L51.59 0L42.20 0L42.20-14.22L45.63-14.22ZM58.00 0.20L58.00 0.20Q55.57 0.20 54.06-1.25Q52.56-2.71 52.56-5.03L52.56-5.03L52.56-5.30Q52.56-6.92 53.16-8.16Q53.76-9.40 54.91-10.08Q56.06-10.76 57.65-10.76L57.65-10.76Q59.87-10.76 61.16-9.38Q62.45-8.00 62.45-5.53L62.45-5.53L62.45-4.25L55.91-4.25Q56.08-3.36 56.68-2.85Q57.28-2.34 58.22-2.34L58.22-2.34Q59.79-2.34 60.66-3.44L60.66-3.44L62.17-1.66Q61.55-0.81 60.42-0.31Q59.30 0.20 58.00 0.20ZM57.63-8.22L57.63-8.22Q56.18-8.22 55.91-6.31L55.91-6.31L59.23-6.31L59.23-6.56Q59.25-7.35 58.83-7.79Q58.41-8.22 57.63-8.22ZM73.02 0L69.73 0Q69.55-0.32 69.41-0.95L69.41-0.95Q68.51 0.20 66.88 0.20L66.88 0.20Q65.38 0.20 64.34-0.71Q63.29-1.61 63.29-2.98L63.29-2.98Q63.29-4.70 64.56-5.58Q65.83-6.46 68.25-6.46L68.25-6.46L69.27-6.46L69.27-7.01Q69.27-8.47 68.01-8.47L68.01-8.47Q66.84-8.47 66.84-7.31L66.84-7.31L63.54-7.31Q63.54-8.85 64.85-9.80Q66.15-10.76 68.17-10.76Q70.20-10.76 71.37-9.78Q72.54-8.79 72.57-7.07L72.57-7.07L72.57-2.39Q72.59-0.94 73.02-0.17L73.02-0.17L73.02 0ZM67.67-2.15L67.67-2.15Q68.28-2.15 68.69-2.41Q69.09-2.68 69.27-3.01L69.27-3.01L69.27-4.70L68.31-4.70Q66.59-4.70 66.59-3.15L66.59-3.15Q66.59-2.71 66.89-2.43Q67.20-2.15 67.67-2.15ZM78.42 0L75.12 0L75.12-8.28L73.58-8.28L73.58-10.57L75.12-10.57L75.12-11.41Q75.12-13.21 76.18-14.21Q77.25-15.21 79.17-15.21L79.17-15.21Q79.87-15.21 80.71-15L80.71-15L80.72-12.58Q80.42-12.67 79.91-12.67L79.91-12.67Q78.42-12.67 78.42-11.38L78.42-11.38L78.42-10.57L80.48-10.57L80.48-8.28L78.42-8.28L78.42 0Z"></path></g></g></svg>